<?xml version="1.0" standalone="no"?>
<!DOCTYPE svg PUBLIC "-//W3C//DTD SVG 1.0//EN" "http://www.w3.org/TR/2001/REC-SVG-20010904/DTD/svg10.dtd">
<svg xmlns="http://www.w3.org/2000/svg" xmlns:xlink="http://www.w3.org/1999/xlink" id="body_1" width="67" height="69">

<g transform="matrix(0.19940476 0 0 0.2005814 0 0)">
	<g transform="matrix(0.40000004 0 0 0.40000004 -0 0.40000004)">
		<g transform="matrix(0.1 0 -0 -0.1 0 859)">
            <path d="M3760 8541C 3760 8535 3765 8528 3770 8525C 3776 8522 3780 8503 3780 8484C 3780 8465 3785 8450 3790 8450C 3796 8450 3800 8434 3800 8415C 3800 8396 3805 8380 3810 8380C 3816 8380 3820 8358 3820 8330C 3820 8303 3825 8280 3830 8280C 3836 8280 3840 8202 3840 8066C 3840 7933 3836 7849 3830 7845C 3825 7842 3820 7817 3820 7789C 3820 7762 3816 7740 3810 7740C 3805 7740 3800 7727 3800 7711C 3800 7694 3796 7678 3790 7675C 3785 7672 3780 7653 3780 7634C 3780 7615 3776 7600 3770 7600C 3765 7600 3760 7589 3760 7576C 3760 7562 3756 7548 3750 7545C 3745 7542 3740 7530 3740 7519C 3740 7509 3736 7500 3730 7500C 3725 7500 3720 7489 3720 7476C 3720 7462 3716 7448 3710 7445C 3705 7442 3700 7430 3700 7419C 3700 7409 3696 7400 3690 7400C 3685 7400 3680 7391 3680 7380C 3680 7369 3676 7360 3670 7360C 3665 7360 3660 7354 3660 7346C 3660 7333 3621 7251 3610 7240C 3607 7237 3594 7213 3580 7185C 3566 7158 3553 7133 3550 7130C 3547 7127 3534 7105 3520 7080C 3507 7055 3492 7031 3488 7025C 3483 7020 3464 6990 3445 6960C 3426 6930 3406 6900 3400 6893C 3395 6886 3385 6869 3378 6855C 3372 6841 3363 6830 3359 6830C 3355 6830 3349 6822 3346 6813C 3342 6803 3326 6780 3310 6761C 3293 6743 3280 6724 3280 6720C 3280 6716 3269 6700 3255 6684C 3241 6668 3230 6649 3230 6643C 3230 6636 3227 6630 3222 6630C 3218 6630 3204 6612 3190 6590C 3176 6568 3163 6550 3160 6550C 3157 6550 3144 6532 3130 6510C 3116 6488 3102 6470 3098 6470C 3093 6470 3090 6463 3090 6455C 3090 6447 3086 6440 3080 6440C 3075 6440 3070 6433 3070 6425C 3070 6417 3066 6410 3060 6410C 3055 6410 3050 6404 3050 6397C 3050 6390 3041 6378 3030 6370C 3019 6362 3010 6350 3010 6343C 3010 6336 3006 6330 3000 6330C 2995 6330 2990 6323 2990 6315C 2990 6307 2986 6300 2980 6300C 2975 6300 2970 6293 2970 6285C 2970 6277 2966 6270 2960 6270C 2955 6270 2950 6264 2950 6257C 2950 6250 2941 6238 2930 6230C 2919 6222 2910 6209 2910 6200C 2910 6191 2901 6178 2890 6170C 2879 6162 2870 6151 2870 6145C 2870 6140 2859 6122 2845 6106C 2832 6090 2818 6069 2815 6059C 2811 6048 2805 6040 2801 6040C 2796 6040 2787 6027 2780 6010C 2773 5994 2764 5980 2759 5980C 2755 5980 2748 5971 2745 5960C 2742 5949 2733 5934 2727 5928C 2720 5921 2704 5895 2690 5870C 2677 5845 2662 5821 2658 5815C 2626 5778 2420 5386 2420 5364C 2420 5356 2416 5350 2410 5350C 2405 5350 2400 5343 2400 5335C 2400 5327 2396 5311 2390 5300C 2384 5289 2376 5271 2370 5260C 2364 5249 2360 5233 2360 5225C 2360 5217 2356 5210 2350 5210C 2345 5210 2340 5197 2340 5180C 2340 5164 2337 5150 2333 5150C 2328 5150 2314 5115 2301 5072C 2288 5030 2273 4991 2268 4985C 2264 4980 2260 4964 2260 4949C 2260 4934 2256 4918 2250 4915C 2245 4912 2240 4896 2240 4880C 2240 4864 2236 4848 2230 4845C 2225 4842 2220 4821 2220 4799C 2220 4778 2216 4760 2210 4760C 2205 4760 2200 4738 2200 4710C 2200 4683 2196 4660 2190 4660C 2185 4660 2180 4636 2180 4606C 2180 4576 2176 4548 2170 4545C 2165 4542 2160 4503 2160 4459C 2160 4413 2156 4380 2150 4380C 2144 4380 2140 4285 2140 4115C 2140 3945 2144 3850 2150 3850C 2156 3850 2160 3817 2160 3770C 2160 3723 2164 3690 2170 3690C 2176 3690 2180 3660 2180 3620C 2180 3580 2184 3550 2190 3550C 2196 3550 2200 3528 2200 3500C 2200 3473 2205 3450 2210 3450C 2216 3450 2220 3430 2220 3406C 2220 3381 2225 3358 2230 3355C 2236 3352 2240 3334 2240 3315C 2240 3296 2245 3278 2250 3275C 2256 3272 2260 3256 2260 3240C 2260 3224 2265 3208 2270 3205C 2276 3202 2280 3183 2280 3164C 2280 3145 2285 3130 2290 3130C 2296 3130 2300 3117 2300 3101C 2300 3084 2305 3068 2310 3065C 2316 3062 2320 3048 2320 3035C 2320 3022 2325 3008 2330 3005C 2336 3002 2340 2988 2340 2975C 2340 2962 2345 2948 2350 2945C 2356 2942 2360 2928 2360 2915C 2360 2902 2364 2889 2368 2886C 2372 2883 2382 2858 2390 2831C 2397 2803 2406 2780 2410 2780C 2413 2780 2422 2759 2429 2733C 2437 2706 2446 2681 2450 2675C 2454 2670 2464 2646 2473 2623L2473 2623L2490 2580L2465 2580C 2451 2580 2440 2585 2440 2590C 2440 2596 2433 2600 2425 2600C 2417 2600 2410 2605 2410 2610C 2410 2616 2403 2620 2395 2620C 2387 2620 2380 2625 2380 2630C 2380 2636 2374 2640 2367 2640C 2341 2640 2080 2895 2080 2920C 2080 2926 2076 2930 2070 2930C 2065 2930 2060 2937 2060 2945C 2060 2953 2056 2960 2050 2960C 2045 2960 2040 2967 2040 2975C 2040 2983 2036 2990 2030 2990C 2025 2990 2020 2997 2020 3005C 2020 3013 2016 3020 2010 3020C 2005 3020 2000 3027 2000 3035C 2000 3043 1996 3050 1990 3050C 1985 3050 1980 3057 1980 3065C 1980 3073 1976 3080 1970 3080C 1965 3080 1960 3087 1960 3095C 1960 3103 1956 3110 1950 3110C 1945 3110 1940 3119 1940 3130C 1940 3141 1936 3150 1930 3150C 1925 3150 1920 3159 1920 3170C 1920 3181 1916 3190 1910 3190C 1905 3190 1900 3199 1900 3210C 1900 3221 1896 3230 1890 3230C 1885 3230 1880 3239 1880 3250C 1880 3261 1876 3270 1870 3270C 1865 3270 1860 3279 1860 3290C 1860 3301 1856 3310 1850 3310C 1845 3310 1840 3319 1840 3330C 1840 3341 1836 3350 1832 3350C 1828 3350 1818 3371 1811 3398C 1803 3424 1794 3447 1791 3450C 1787 3453 1774 3487 1762 3525C 1749 3564 1735 3604 1731 3615C 1717 3649 1671 3809 1651 3893C 1628 3990 1620 4026 1610 4083C 1605 4114 1596 4164 1590 4193C 1585 4221 1578 4272 1575 4305C 1572 4338 1566 4383 1563 4405L1563 4405L1558 4444L1534 4400C 1521 4375 1511 4347 1510 4338C 1510 4328 1506 4320 1500 4320C 1495 4320 1490 4311 1490 4300C 1490 4289 1486 4280 1482 4280C 1477 4280 1467 4257 1460 4230C 1453 4202 1444 4180 1440 4180C 1436 4180 1427 4157 1420 4129C 1412 4102 1402 4077 1398 4074C 1394 4071 1390 4056 1390 4039C 1390 4023 1386 4010 1380 4010C 1375 4010 1370 3999 1370 3986C 1370 3972 1365 3958 1360 3955C 1355 3952 1350 3933 1350 3914C 1350 3895 1346 3880 1340 3880C 1335 3880 1330 3862 1330 3840C 1330 3818 1326 3800 1320 3800C 1315 3800 1310 3780 1310 3755C 1310 3730 1306 3710 1300 3710C 1295 3710 1290 3688 1290 3660C 1290 3633 1286 3610 1280 3610C 1274 3610 1270 3583 1270 3550C 1270 3517 1266 3490 1260 3490C 1254 3490 1250 3450 1250 3391C 1250 3335 1246 3288 1240 3285C 1226 3277 1226 2900 1240 2900C 1246 2900 1250 2860 1250 2800C 1250 2740 1254 2700 1260 2700C 1266 2700 1270 2670 1270 2630C 1270 2590 1274 2560 1280 2560C 1286 2560 1290 2538 1290 2510C 1290 2483 1295 2460 1300 2460C 1306 2460 1310 2440 1310 2416C 1310 2391 1314 2368 1320 2365C 1325 2362 1330 2343 1330 2324C 1330 2305 1335 2290 1340 2290C 1346 2290 1350 2275 1350 2256C 1350 2237 1355 2218 1360 2215C 1366 2212 1370 2198 1370 2185C 1370 2172 1375 2158 1380 2155C 1386 2152 1390 2136 1390 2119C 1390 2103 1395 2090 1400 2090C 1406 2090 1410 2077 1410 2060C 1410 2044 1415 2030 1420 2030C 1426 2030 1430 2021 1430 2010C 1430 1999 1434 1982 1439 1972C 1444 1963 1453 1942 1460 1925C 1467 1909 1476 1887 1481 1878C 1486 1868 1490 1853 1490 1845C 1490 1837 1495 1830 1500 1830C 1506 1830 1510 1823 1510 1815C 1510 1806 1523 1773 1540 1740C 1556 1707 1570 1674 1570 1665C 1570 1657 1575 1650 1580 1650C 1586 1650 1590 1641 1590 1631C 1590 1620 1594 1610 1599 1608C 1604 1607 1620 1580 1635 1550C 1666 1488 1798 1272 1817 1252C 1824 1245 1830 1235 1830 1230C 1830 1225 1841 1210 1855 1196C 1869 1182 1880 1167 1880 1163C 1880 1158 1898 1134 1920 1110C 1942 1086 1960 1062 1960 1058C 1960 1054 1983 1027 2010 999C 2038 971 2060 944 2060 939C 2060 927 2251 737 2320 680C 2350 655 2377 633 2380 630C 2408 598 2667 421 2718 399C 2735 391 2750 382 2750 378C 2750 373 2759 370 2770 370C 2781 370 2790 366 2790 360C 2790 355 2799 350 2810 350C 2821 350 2830 346 2830 340C 2830 335 2839 330 2849 330C 2860 330 2872 326 2875 320C 2878 315 2892 310 2905 310C 2918 310 2930 306 2932 302C 2937 289 3039 258 3175 228C 3231 216 3657 213 3733 225C 3759 229 3780 236 3780 241C 3780 246 3793 250 3809 250C 3826 250 3842 254 3845 260C 3848 265 3862 270 3876 270C 3889 270 3900 275 3900 280C 3900 286 3909 290 3920 290C 3931 290 3940 295 3940 300C 3940 306 3949 310 3960 310C 3971 310 3980 315 3980 320C 3980 326 3989 330 4000 330C 4011 330 4020 335 4020 340C 4020 346 4026 350 4033 350C 4067 350 4249 533 4250 568C 4250 574 4255 580 4260 580C 4266 580 4270 589 4270 600C 4270 611 4273 620 4278 620C 4286 620 4322 735 4340 820C 4354 883 4342 1030 4316 1130C 4312 1144 4304 1173 4298 1195C 4268 1309 4148 1558 4090 1627C 4084 1634 4075 1651 4068 1665C 4062 1679 4054 1690 4050 1690C 4046 1690 4037 1704 4030 1720C 4023 1737 4014 1750 4009 1750C 4005 1750 3998 1759 3995 1770C 3991 1781 3979 1801 3967 1813C 3955 1825 3939 1847 3931 1863C 3923 1878 3913 1890 3908 1890C 3904 1890 3900 1896 3900 1903C 3900 1910 3891 1926 3880 1938C 3869 1950 3860 1964 3860 1970C 3860 1975 3856 1980 3850 1980C 3845 1980 3840 1987 3840 1995C 3840 2003 3836 2010 3830 2010C 3825 2010 3820 2017 3820 2025C 3820 2033 3816 2040 3810 2040C 3805 2040 3800 2047 3800 2055C 3800 2063 3796 2070 3790 2070C 3785 2070 3780 2077 3780 2085C 3780 2093 3776 2100 3771 2100C 3766 2100 3760 2108 3757 2118C 3749 2141 3717 2194 3708 2198C 3703 2200 3700 2208 3700 2216C 3700 2224 3696 2230 3690 2230C 3685 2230 3680 2239 3680 2250C 3680 2261 3676 2270 3670 2270C 3665 2270 3660 2277 3660 2285C 3660 2293 3656 2300 3650 2300C 3645 2300 3640 2309 3640 2320C 3640 2331 3636 2340 3630 2340C 3625 2340 3620 2347 3620 2355C 3620 2363 3616 2370 3612 2370C 3607 2370 3598 2386 3590 2405C 3582 2424 3573 2440 3568 2440C 3564 2440 3560 2449 3560 2460C 3560 2471 3556 2480 3550 2480C 3545 2480 3540 2489 3540 2500C 3540 2511 3536 2520 3530 2520C 3525 2520 3520 2529 3520 2540C 3520 2551 3516 2560 3510 2560C 3505 2560 3500 2569 3500 2580C 3500 2591 3496 2600 3490 2600C 3485 2600 3480 2609 3480 2620C 3480 2631 3476 2640 3470 2640C 3465 2640 3460 2649 3460 2660C 3460 2671 3456 2680 3450 2680C 3445 2680 3440 2686 3440 2693C 3440 2701 3434 2720 3426 2736C 3418 2752 3404 2783 3395 2805C 3385 2827 3372 2859 3365 2875C 3333 2949 3249 3197 3220 3306C 3163 3515 3133 3710 3114 3988C 3105 4117 3129 4403 3160 4530C 3164 4549 3173 4590 3180 4620C 3197 4702 3257 4885 3291 4965C 3354 5108 3384 5170 3392 5170C 3396 5170 3400 5179 3400 5190C 3400 5201 3404 5210 3408 5210C 3412 5210 3427 5232 3441 5260C 3454 5287 3468 5310 3471 5310C 3475 5310 3483 5324 3490 5340C 3497 5357 3506 5370 3511 5370C 3516 5370 3520 5376 3520 5383C 3520 5390 3528 5405 3538 5416C 3548 5426 3567 5451 3580 5470C 3594 5489 3614 5515 3625 5526C 3655 5558 3680 5589 3680 5596C 3680 5599 3703 5623 3730 5650C 3758 5677 3780 5702 3780 5705C 3780 5712 3832 5762 3906 5825C 3931 5847 3965 5877 3981 5893C 3997 5908 4014 5920 4020 5920C 4025 5920 4030 5925 4030 5930C 4030 5936 4037 5940 4046 5940C 4058 5940 4060 5935 4055 5923C 4051 5913 4045 5895 4043 5883C 4040 5870 4035 5860 4031 5860C 4027 5860 4017 5838 4010 5810C 4003 5783 3993 5760 3988 5760C 3984 5760 3980 5749 3980 5736C 3980 5722 3976 5708 3970 5705C 3965 5702 3960 5688 3960 5675C 3960 5662 3956 5648 3950 5645C 3945 5642 3940 5626 3940 5609C 3940 5593 3936 5580 3930 5580C 3925 5580 3920 5564 3920 5545C 3920 5526 3916 5510 3910 5510C 3905 5510 3900 5492 3900 5470C 3900 5448 3896 5430 3890 5430C 3885 5430 3880 5412 3880 5391C 3880 5369 3876 5348 3870 5345C 3865 5342 3860 5314 3860 5284C 3860 5254 3856 5230 3850 5230C 3844 5230 3840 5183 3840 5110C 3840 5037 3836 4990 3830 4990C 3825 4990 3820 4965 3820 4935C 3820 4905 3825 4880 3830 4880C 3836 4880 3840 4840 3840 4781C 3840 4725 3844 4678 3850 4675C 3856 4672 3860 4644 3860 4614C 3860 4584 3865 4560 3870 4560C 3876 4560 3880 4542 3880 4520C 3880 4498 3885 4480 3890 4480C 3896 4480 3900 4470 3900 4458C 3900 4433 3922 4365 3933 4354C 3937 4350 3940 4336 3940 4323C 3940 4311 3945 4300 3950 4300C 3956 4300 3960 4287 3960 4270C 3960 4254 3965 4240 3970 4240C 3976 4240 3980 4231 3980 4220C 3980 4209 3985 4200 3990 4200C 3996 4200 4000 4191 4000 4180C 4000 4169 4005 4160 4010 4160C 4016 4160 4020 4151 4020 4140C 4020 4129 4025 4120 4030 4120C 4036 4120 4040 4111 4040 4100C 4040 4089 4045 4080 4050 4080C 4056 4080 4060 4071 4060 4060C 4060 4049 4063 4040 4068 4040C 4072 4040 4081 4025 4089 4008C 4112 3955 4273 3721 4325 3664C 4330 3658 4342 3642 4350 3630C 4358 3618 4386 3585 4413 3558C 4439 3531 4460 3505 4460 3500C 4460 3495 4540 3410 4638 3312C 5053 2894 5360 2574 5360 2559C 5360 2553 5378 2531 5400 2510C 5422 2489 5440 2467 5440 2461C 5440 2455 5445 2450 5450 2450C 5456 2450 5460 2444 5460 2437C 5460 2430 5469 2418 5480 2410C 5491 2402 5500 2390 5500 2383C 5500 2376 5505 2370 5510 2370C 5516 2370 5520 2365 5520 2360C 5520 2354 5529 2340 5540 2328C 5551 2316 5560 2300 5560 2293C 5560 2286 5565 2280 5570 2280C 5576 2280 5580 2273 5580 2265C 5580 2257 5585 2250 5590 2250C 5596 2250 5600 2243 5600 2235C 5600 2227 5605 2220 5610 2220C 5616 2220 5620 2213 5620 2205C 5620 2197 5625 2190 5630 2190C 5636 2190 5640 2181 5640 2170C 5640 2159 5645 2150 5650 2150C 5656 2150 5660 2141 5660 2130C 5660 2119 5665 2110 5670 2110C 5676 2110 5680 2101 5680 2090C 5680 2079 5685 2070 5690 2070C 5696 2070 5700 2061 5700 2050C 5700 2039 5705 2030 5710 2030C 5716 2030 5720 2020 5720 2007C 5720 1994 5724 1980 5728 1974C 5736 1965 5768 1865 5789 1785C 5812 1692 5823 1532 5812 1443C 5787 1254 5782 1224 5770 1195C 5766 1184 5757 1155 5750 1130C 5744 1105 5735 1078 5731 1070C 5727 1062 5717 1034 5709 1007C 5694 955 5673 945 5665 987C 5661 1003 5655 1023 5649 1032C 5644 1042 5640 1059 5640 1069C 5640 1080 5636 1092 5630 1095C 5625 1098 5620 1112 5620 1125C 5620 1138 5616 1152 5610 1155C 5605 1158 5600 1170 5600 1181C 5600 1191 5596 1200 5590 1200C 5585 1200 5580 1211 5580 1224C 5580 1238 5576 1252 5570 1255C 5565 1258 5560 1270 5560 1281C 5560 1291 5556 1300 5550 1300C 5545 1300 5540 1309 5540 1320C 5540 1331 5536 1340 5530 1340C 5525 1340 5520 1351 5520 1365C 5520 1379 5516 1390 5510 1390C 5505 1390 5500 1399 5500 1410C 5500 1421 5496 1430 5490 1430C 5485 1430 5480 1439 5480 1450C 5480 1461 5476 1470 5470 1470C 5465 1470 5460 1477 5460 1485C 5460 1493 5456 1500 5450 1500C 5445 1500 5440 1507 5440 1515C 5440 1523 5436 1530 5430 1530C 5425 1530 5420 1539 5420 1550C 5420 1561 5416 1570 5410 1570C 5405 1570 5400 1578 5400 1588C 5400 1598 5391 1612 5380 1620C 5369 1628 5360 1641 5360 1650C 5360 1659 5351 1672 5340 1680C 5329 1688 5320 1700 5320 1707C 5320 1714 5307 1734 5290 1752C 5274 1769 5260 1787 5260 1791C 5260 1802 5176 1894 5075 1994C 5009 2060 4953 2105 4815 2207C 4790 2225 4744 2252 4728 2257C 4718 2260 4710 2266 4710 2271C 4710 2276 4701 2280 4690 2280C 4679 2280 4670 2285 4670 2290C 4670 2296 4661 2300 4650 2300C 4639 2300 4630 2305 4630 2310C 4630 2316 4621 2320 4610 2320C 4599 2320 4590 2325 4590 2330C 4590 2336 4581 2340 4570 2340C 4559 2340 4550 2344 4550 2348C 4550 2352 4529 2362 4503 2369C 4476 2377 4447 2388 4438 2394C 4420 2405 4399 2394 4416 2382C 4422 2378 4455 2332 4490 2280C 4525 2228 4557 2184 4562 2182C 4566 2180 4570 2172 4570 2164C 4570 2156 4575 2150 4580 2150C 4586 2150 4590 2143 4590 2135C 4590 2126 4599 2110 4610 2098C 4621 2086 4630 2070 4630 2063C 4630 2056 4635 2050 4640 2050C 4646 2050 4650 2041 4650 2030C 4650 2019 4655 2010 4660 2010C 4666 2010 4670 2003 4670 1995C 4670 1987 4675 1980 4680 1980C 4686 1980 4690 1973 4690 1965C 4690 1957 4695 1950 4700 1950C 4706 1950 4710 1941 4710 1930C 4710 1919 4715 1910 4720 1910C 4726 1910 4730 1901 4730 1890C 4730 1879 4735 1870 4740 1870C 4746 1870 4750 1861 4750 1850C 4750 1839 4755 1830 4760 1830C 4766 1830 4770 1821 4770 1810C 4770 1799 4775 1790 4780 1790C 4786 1790 4790 1781 4790 1770C 4790 1759 4795 1750 4800 1750C 4806 1750 4810 1744 4810 1737C 4810 1730 4819 1705 4830 1682C 4841 1660 4850 1634 4850 1625C 4850 1617 4855 1610 4860 1610C 4866 1610 4870 1600 4870 1587C 4870 1574 4874 1560 4878 1554C 4883 1549 4892 1525 4899 1500C 4906 1475 4916 1447 4921 1438C 4926 1428 4930 1409 4930 1396C 4930 1382 4935 1368 4940 1365C 4946 1362 4950 1344 4950 1326C 4950 1309 4954 1290 4959 1284C 4982 1261 4997 916 4980 815C 4970 751 4941 644 4921 595C 4906 558 4865 475 4860 470C 4857 467 4848 452 4840 435C 4832 419 4821 400 4815 394C 4810 388 4794 368 4780 350C 4766 332 4745 306 4733 294C 4720 281 4710 268 4710 264C 4710 256 4650 200 4641 200C 4637 200 4613 181 4589 158C 4564 134 4532 109 4517 101C 4502 93 4490 83 4490 78C 4490 74 4483 70 4475 70C 4467 70 4460 66 4460 60C 4460 55 4485 50 4515 50C 4545 50 4570 55 4570 60C 4570 66 4597 70 4630 70C 4663 70 4690 74 4690 80C 4690 86 4713 90 4740 90C 4768 90 4790 95 4790 100C 4790 106 4808 110 4829 110C 4851 110 4872 114 4875 120C 4878 125 4899 130 4920 130C 4941 130 4962 135 4965 140C 4968 146 4987 150 5006 150C 5025 150 5040 155 5040 160C 5040 166 5055 170 5074 170C 5093 170 5112 175 5115 180C 5118 186 5132 190 5145 190C 5158 190 5172 195 5175 200C 5178 206 5194 210 5211 210C 5227 210 5240 215 5240 220C 5240 226 5254 230 5270 230C 5287 230 5300 235 5300 240C 5300 246 5314 250 5330 250C 5347 250 5360 254 5360 258C 5360 263 5383 273 5410 280C 5438 287 5460 296 5460 300C 5460 304 5483 313 5510 320C 5538 327 5560 337 5560 342C 5560 346 5569 350 5580 350C 5591 350 5600 355 5600 360C 5600 366 5607 370 5616 370C 5650 370 6017 572 6086 629C 6091 633 6107 643 6120 650C 6133 657 6154 673 6167 686C 6180 699 6195 710 6200 710C 6204 710 6227 728 6250 750C 6273 772 6296 790 6301 790C 6313 790 6557 1035 6600 1090C 6619 1115 6642 1143 6651 1153C 6684 1190 6780 1328 6780 1339C 6780 1345 6784 1350 6789 1350C 6794 1350 6800 1358 6803 1368C 6809 1385 6840 1440 6850 1450C 6861 1461 6920 1584 6920 1596C 6920 1604 6925 1610 6930 1610C 6936 1610 6940 1619 6940 1630C 6940 1641 6945 1650 6950 1650C 6956 1650 6960 1659 6960 1670C 6960 1681 6965 1690 6970 1690C 6976 1690 6980 1701 6980 1714C 6980 1728 6984 1742 6990 1745C 6995 1748 7000 1760 7000 1771C 7000 1781 7005 1790 7010 1790C 7016 1790 7020 1804 7020 1820C 7020 1837 7025 1850 7030 1850C 7036 1850 7040 1863 7040 1879C 7040 1896 7045 1912 7050 1915C 7056 1918 7060 1934 7060 1950C 7060 1966 7065 1982 7070 1985C 7076 1988 7080 2007 7080 2026C 7080 2045 7085 2060 7090 2060C 7096 2060 7100 2078 7100 2100C 7100 2122 7105 2140 7110 2140C 7116 2140 7120 2164 7120 2194C 7120 2224 7125 2252 7130 2255C 7136 2258 7140 2292 7140 2331C 7140 2370 7144 2400 7150 2400C 7156 2400 7160 2497 7160 2670C 7160 2843 7156 2940 7150 2940C 7144 2940 7140 2972 7140 3015C 7140 3058 7136 3090 7130 3090C 7125 3090 7120 3115 7120 3145C 7120 3175 7116 3200 7110 3200C 7105 3200 7100 3220 7100 3244C 7100 3269 7096 3292 7090 3295C 7085 3298 7080 3316 7080 3335C 7080 3354 7076 3372 7070 3375C 7065 3378 7060 3397 7060 3416C 7060 3435 7056 3450 7050 3450C 7045 3450 7040 3463 7040 3479C 7040 3496 7036 3512 7030 3515C 7025 3518 7020 3532 7020 3545C 7020 3558 7016 3572 7010 3575C 7005 3578 7000 3592 7000 3606C 7000 3619 6996 3630 6992 3630C 6988 3630 6978 3651 6970 3678C 6963 3704 6948 3743 6937 3765C 6926 3787 6914 3814 6910 3825C 6894 3868 6780 4091 6769 4100C 6766 4103 6757 4116 6750 4130C 6732 4165 6648 4292 6633 4308C 6627 4314 6618 4329 6615 4340C 6612 4351 6605 4360 6601 4360C 6596 4360 6587 4374 6580 4390C 6573 4407 6565 4420 6561 4420C 6558 4420 6544 4443 6531 4470C 6517 4498 6504 4520 6501 4520C 6497 4520 6484 4545 6470 4575C 6456 4605 6442 4630 6438 4630C 6433 4630 6430 4639 6430 4650C 6430 4661 6427 4670 6423 4670C 6414 4670 6390 4719 6390 4737C 6390 4744 6386 4750 6380 4750C 6375 4750 6370 4759 6370 4770C 6370 4781 6366 4790 6360 4790C 6355 4790 6350 4799 6350 4809C 6350 4820 6346 4832 6340 4835C 6335 4838 6330 4850 6330 4861C 6330 4871 6326 4880 6320 4880C 6315 4880 6310 4891 6310 4905C 6310 4919 6306 4930 6300 4930C 6295 4930 6290 4944 6290 4960C 6290 4977 6286 4990 6280 4990C 6275 4990 6270 4999 6270 5010C 6270 5021 6266 5030 6260 5030C 6255 5030 6250 5043 6250 5059C 6250 5076 6246 5092 6240 5095C 6235 5098 6230 5112 6230 5126C 6230 5139 6226 5150 6220 5150C 6215 5150 6210 5168 6210 5190C 6210 5212 6206 5230 6201 5230C 6192 5230 6187 5252 6175 5335C 6171 5357 6165 5384 6160 5395C 6150 5417 6142 5471 6134 5565C 6131 5598 6124 5629 6119 5635C 6106 5648 6107 6207 6120 6215C 6126 6218 6130 6248 6130 6280C 6130 6312 6135 6342 6140 6345C 6146 6348 6150 6373 6150 6400C 6150 6427 6155 6452 6160 6455C 6166 6458 6170 6476 6170 6495C 6170 6514 6175 6532 6180 6535C 6186 6538 6190 6554 6190 6570C 6190 6586 6194 6602 6200 6605C 6206 6608 6210 6624 6210 6640C 6210 6655 6216 6670 6223 6673C 6229 6675 6232 6681 6227 6685C 6223 6690 6214 6688 6208 6682C 6201 6675 6188 6670 6178 6670C 6168 6670 6151 6666 6140 6660C 6129 6655 6111 6646 6100 6640C 6089 6635 6073 6630 6065 6630C 6057 6630 6050 6626 6050 6620C 6050 6615 6041 6610 6030 6610C 6019 6610 6010 6606 6010 6600C 6010 6595 6003 6590 5995 6590C 5980 6590 5940 6571 5930 6559C 5927 6556 5910 6547 5893 6539C 5875 6531 5860 6522 5860 6519C 5860 6515 5847 6507 5830 6500C 5814 6493 5800 6485 5800 6481C 5800 6477 5787 6466 5770 6457C 5754 6447 5735 6434 5728 6427C 5721 6420 5703 6407 5689 6398C 5636 6364 5440 6177 5440 6161C 5440 6155 5436 6150 5430 6150C 5425 6150 5420 6145 5420 6140C 5420 6134 5407 6116 5390 6098C 5374 6081 5360 6063 5360 6057C 5360 6052 5352 6040 5342 6031C 5333 6022 5319 6003 5311 5988C 5303 5972 5293 5960 5288 5960C 5284 5960 5280 5951 5280 5940C 5280 5929 5276 5920 5272 5920C 5264 5920 5175 5739 5150 5673C 5143 5655 5134 5640 5130 5640C 5125 5640 5119 5776 5116 5943C 5110 6302 5103 6375 5041 6715C 5017 6848 4925 7162 4880 7268C 4874 7280 4866 7300 4861 7313C 4832 7384 4745 7560 4738 7560C 4734 7560 4730 7569 4730 7580C 4730 7591 4726 7600 4720 7600C 4715 7600 4710 7609 4710 7620C 4710 7631 4706 7640 4700 7640C 4695 7640 4690 7648 4690 7658C 4690 7668 4681 7682 4670 7690C 4659 7698 4650 7712 4650 7722C 4650 7732 4646 7740 4640 7740C 4635 7740 4630 7747 4630 7755C 4630 7763 4626 7770 4620 7770C 4615 7770 4610 7777 4610 7785C 4610 7793 4606 7800 4600 7800C 4595 7800 4590 7807 4590 7815C 4590 7823 4586 7830 4580 7830C 4575 7830 4570 7836 4570 7843C 4570 7850 4561 7862 4550 7870C 4539 7878 4530 7890 4530 7897C 4530 7904 4526 7910 4520 7910C 4515 7910 4510 7915 4510 7920C 4510 7926 4500 7941 4488 7954C 4475 7967 4442 8004 4414 8036C 4351 8109 4287 8172 4214 8236C 4184 8263 4145 8297 4128 8313C 4111 8328 4085 8348 4069 8357C 4053 8367 4040 8378 4040 8382C 4040 8386 4033 8390 4025 8390C 4017 8390 4010 8395 4010 8400C 4010 8406 4005 8410 4000 8410C 3994 8410 3980 8419 3968 8430C 3956 8441 3940 8450 3933 8450C 3926 8450 3920 8455 3920 8460C 3920 8466 3913 8470 3905 8470C 3897 8470 3890 8475 3890 8480C 3890 8486 3883 8490 3875 8490C 3867 8490 3860 8495 3860 8500C 3860 8506 3851 8510 3840 8510C 3829 8510 3820 8515 3820 8520C 3820 8526 3811 8530 3800 8530C 3789 8530 3780 8535 3780 8540C 3780 8546 3776 8550 3770 8550C 3765 8550 3760 8546 3760 8541zM5644 5058C 5647 5029 5654 4976 5660 4940C 5666 4904 5673 4857 5676 4835C 5679 4813 5686 4791 5691 4786C 5696 4780 5700 4761 5700 4744C 5700 4726 5705 4708 5710 4705C 5716 4702 5720 4686 5720 4669C 5720 4653 5725 4640 5730 4640C 5736 4640 5740 4629 5740 4616C 5740 4602 5745 4588 5750 4585C 5756 4582 5760 4568 5760 4555C 5760 4542 5765 4528 5770 4525C 5776 4522 5780 4510 5780 4499C 5780 4489 5785 4480 5790 4480C 5796 4480 5800 4473 5800 4465C 5800 4448 5926 4192 5962 4137C 5975 4117 5996 4082 6010 4059C 6024 4035 6065 3970 6103 3913C 6140 3856 6170 3805 6170 3800C 6170 3794 6174 3790 6178 3790C 6183 3790 6193 3778 6201 3763C 6209 3747 6217 3733 6220 3730C 6230 3720 6261 3665 6267 3648C 6270 3638 6276 3630 6281 3630C 6286 3630 6290 3621 6290 3610C 6290 3599 6295 3590 6300 3590C 6306 3590 6310 3581 6310 3570C 6310 3559 6315 3550 6320 3550C 6326 3550 6330 3541 6330 3530C 6330 3519 6335 3510 6340 3510C 6346 3510 6350 3501 6350 3490C 6350 3479 6355 3470 6360 3470C 6366 3470 6370 3461 6370 3450C 6370 3439 6375 3430 6380 3430C 6386 3430 6390 3417 6390 3400C 6390 3384 6395 3370 6400 3370C 6406 3370 6410 3359 6410 3346C 6410 3332 6415 3318 6420 3315C 6426 3312 6430 3298 6430 3285C 6430 3272 6435 3258 6440 3255C 6446 3252 6450 3236 6450 3220C 6450 3204 6455 3188 6460 3185C 6466 3182 6470 3164 6470 3145C 6470 3126 6475 3108 6480 3105C 6486 3102 6490 3080 6490 3056C 6490 3033 6494 3010 6499 3004C 6509 2995 6520 2852 6520 2740C 6520 2628 6509 2485 6499 2476C 6494 2470 6490 2447 6490 2424C 6490 2400 6486 2378 6480 2375C 6475 2372 6470 2354 6470 2335C 6470 2316 6466 2298 6460 2295C 6455 2292 6450 2271 6450 2249C 6450 2228 6446 2210 6440 2210C 6435 2210 6430 2197 6430 2180C 6430 2164 6426 2150 6420 2150C 6415 2150 6410 2139 6410 2125C 6410 2111 6406 2100 6400 2100C 6395 2100 6390 2089 6390 2075C 6390 2061 6386 2050 6380 2050C 6375 2050 6370 2037 6370 2020C 6370 2004 6366 1990 6360 1990C 6355 1990 6350 1983 6350 1974C 6350 1959 6327 1930 6316 1930C 6313 1930 6310 1944 6310 1960C 6310 1977 6315 1990 6320 1990C 6326 1990 6330 2022 6330 2065C 6330 2108 6326 2140 6320 2140C 6314 2140 6310 2173 6310 2220C 6310 2267 6306 2300 6300 2300C 6295 2300 6290 2318 6290 2339C 6290 2361 6286 2382 6280 2385C 6275 2388 6270 2407 6270 2426C 6270 2445 6266 2460 6260 2460C 6255 2460 6250 2471 6250 2484C 6250 2498 6246 2512 6240 2515C 6235 2518 6230 2530 6230 2541C 6230 2551 6226 2560 6220 2560C 6215 2560 6210 2569 6210 2580C 6210 2591 6206 2600 6200 2600C 6195 2600 6190 2609 6190 2620C 6190 2631 6186 2640 6180 2640C 6175 2640 6170 2649 6170 2660C 6170 2671 6166 2680 6160 2680C 6155 2680 6150 2688 6150 2698C 6150 2708 6141 2722 6130 2730C 6119 2738 6110 2751 6110 2760C 6110 2769 6101 2782 6090 2790C 6079 2798 6070 2809 6070 2815C 6070 2821 6062 2835 6053 2846C 6043 2856 6023 2881 6008 2902C 5993 2922 5975 2944 5968 2952C 5961 2959 5933 2992 5905 3025C 5878 3058 5853 3087 5850 3090C 5847 3093 5829 3115 5810 3140C 5791 3165 5768 3192 5760 3200C 5751 3208 5733 3231 5720 3250C 5707 3269 5690 3291 5683 3298C 5676 3305 5663 3324 5653 3340C 5644 3357 5632 3370 5628 3370C 5624 3370 5620 3378 5620 3388C 5620 3398 5611 3412 5600 3420C 5589 3428 5580 3442 5580 3452C 5580 3462 5576 3470 5570 3470C 5565 3470 5560 3479 5560 3490C 5560 3501 5556 3510 5550 3510C 5545 3510 5540 3517 5540 3525C 5540 3533 5536 3540 5530 3540C 5525 3540 5520 3549 5520 3560C 5520 3571 5516 3580 5510 3580C 5505 3580 5500 3591 5500 3605C 5500 3619 5496 3630 5490 3630C 5485 3630 5480 3639 5480 3650C 5480 3661 5476 3670 5470 3670C 5465 3670 5460 3684 5460 3700C 5460 3717 5456 3730 5450 3730C 5445 3730 5440 3744 5440 3760C 5440 3777 5436 3790 5430 3790C 5425 3790 5420 3810 5420 3835C 5420 3860 5416 3880 5410 3880C 5405 3880 5400 3902 5400 3929C 5400 3957 5396 3982 5390 3985C 5384 3989 5380 4070 5380 4196C 5380 4325 5384 4400 5390 4400C 5396 4400 5400 4427 5400 4460C 5400 4493 5404 4520 5410 4520C 5416 4520 5420 4540 5420 4565C 5420 4590 5425 4610 5430 4610C 5436 4610 5440 4625 5440 4644C 5440 4663 5445 4682 5450 4685C 5456 4688 5460 4704 5460 4721C 5460 4737 5465 4750 5470 4750C 5476 4750 5480 4764 5480 4780C 5480 4797 5485 4810 5490 4810C 5496 4810 5500 4821 5500 4834C 5500 4848 5505 4862 5510 4865C 5516 4868 5520 4880 5520 4891C 5520 4901 5525 4910 5530 4910C 5536 4910 5540 4921 5540 4935C 5540 4949 5545 4960 5550 4960C 5556 4960 5560 4971 5560 4985C 5560 4999 5565 5010 5570 5010C 5576 5010 5580 5019 5580 5030C 5580 5041 5585 5050 5590 5050C 5596 5050 5600 5057 5600 5065C 5600 5081 5620 5109 5632 5110C 5635 5110 5641 5086 5644 5058z" stroke="none" fill="#B80F0A" fill-rule="nonzero" />
		</g>
	</g>
</g>
</svg>